<?xml version="1.0"?>
<svg xmlns="http://www.w3.org/2000/svg" xmlns:xlink="http://www.w3.org/1999/xlink" version="1.1" id="Capa_1" x="0px" y="0px" viewBox="0 0 512.007 512.007" style="enable-background:new 0 0 512.007 512.007;" xml:space="preserve" width="512px" height="512px"><g transform="matrix(0.868746 0 0 0.868746 33.6015 33.6015)"><g>
	<g>
		<g>
			<path d="M426.577,189.772H85.43c-9.052,0-16.382,7.33-16.382,16.382s7.33,16.382,16.382,16.382h341.147     c9.052,0,16.382-7.33,16.382-16.382S435.629,189.772,426.577,189.772z" data-original="#000000" class="active-path" data-old_color="#000000" fill="#555555"/>
			<path d="M232.366,122.84h194.211c9.052,0,16.391-7.33,16.391-16.382c0-9.052-7.33-16.382-16.382-16.382h-194.22     c-9.052,0-16.382,7.33-16.382,16.382C215.984,115.51,223.314,122.84,232.366,122.84z" data-original="#000000" class="active-path" data-old_color="#000000" fill="#555555"/>
			<path d="M426.577,289.495H85.43c-9.052,0-16.382,7.33-16.382,16.382s7.33,16.382,16.382,16.382h341.147     c9.052,0,16.382-7.33,16.382-16.382S435.629,289.495,426.577,289.495z" data-original="#000000" class="active-path" data-old_color="#000000" fill="#555555"/>
			<path d="M279.65,389.192H85.43c-9.052,0-16.382,7.33-16.382,16.382c0,9.052,7.33,16.382,16.382,16.382h194.22     c9.043,0,16.382-7.33,16.382-16.382C296.032,396.523,288.702,389.192,279.65,389.192z" data-original="#000000" class="active-path" data-old_color="#000000" fill="#555555"/>
			<path d="M361.917,369.917c-22.16,0-39.936,14.359-43.228,34.904c-3.177,19.808,7.996,38.072,27.183,44.391     c8.626,2.84,17.856-1.837,20.687-10.428c2.831-8.599-1.837-17.864-10.428-20.687c-5.476-1.81-5.378-6.257-5.085-8.085     c0.346-2.201,2.121-7.33,10.88-7.33c11.288,0,15.291,10.525,15.291,19.551c0,30.262-23.464,51.81-46.636,57.481     c-8.786,2.139-14.164,11.013-12.016,19.799c1.828,7.481,8.528,12.495,15.903,12.495c1.278,0,2.591-0.151,3.887-0.47     c41.489-10.144,71.609-47.701,71.609-89.305C409.964,392.405,389.313,369.917,361.917,369.917z" data-original="#000000" class="active-path" data-old_color="#000000" fill="#555555"/>
			<path d="M463.948,369.917c-22.16,0-39.944,14.359-43.237,34.912c-3.186,19.808,7.996,38.063,27.192,44.391     c8.591,2.787,17.856-1.837,20.687-10.445c2.822-8.591-1.846-17.856-10.445-20.687c-5.476-1.802-5.378-6.248-5.085-8.076     c0.355-2.201,2.13-7.33,10.889-7.33c11.288,0,15.291,10.525,15.291,19.551c0,30.253-23.473,51.81-46.654,57.481     c-8.786,2.139-14.164,11.004-12.016,19.799c1.828,7.481,8.52,12.495,15.903,12.495c1.278,0,2.591-0.151,3.896-0.47     c41.497-10.135,71.627-47.701,71.627-89.305C511.995,392.405,491.344,369.917,463.948,369.917z" data-original="#000000" class="active-path" data-old_color="#000000" fill="#555555"/>
			<path d="M150.081,142.098c22.16,0,39.935-14.35,43.237-34.913c3.177-19.808-7.996-38.072-27.183-44.391     c-8.617-2.84-17.865,1.837-20.687,10.428c-2.831,8.599,1.837,17.865,10.428,20.687c5.476,1.81,5.378,6.257,5.085,8.085     c-0.346,2.201-2.121,7.33-10.88,7.33c-11.288,0-15.291-10.525-15.291-19.551c0-30.262,23.464-51.81,46.636-57.481     c8.786-2.139,14.164-11.013,12.016-19.799c-2.148-8.777-10.978-14.182-19.799-12.016c-41.489,10.144-71.609,47.701-71.609,89.305     C102.034,119.61,122.686,142.098,150.081,142.098z" data-original="#000000" class="active-path" data-old_color="#000000" fill="#555555"/>
			<path d="M91.296,107.185c3.186-19.808-7.996-38.063-27.192-44.391c-8.582-2.804-17.856,1.846-20.687,10.445     c-2.831,8.591,1.846,17.856,10.445,20.687c5.476,1.802,5.378,6.248,5.085,8.076c-0.355,2.201-2.13,7.33-10.889,7.33     c-11.288,0-15.291-10.525-15.291-19.551c0-30.262,23.473-51.81,46.654-57.481c8.786-2.139,14.164-11.004,12.016-19.799     C89.291,3.726,80.487-1.688,71.639,0.487C30.142,10.612,0.012,48.178,0.012,89.782c0,29.827,20.651,52.316,48.047,52.316     C70.219,142.098,88.004,127.748,91.296,107.185z" data-original="#000000" class="active-path" data-old_color="#000000" fill="#555555"/>
		</g>
	</g>
</g></g> </svg>
