<svg xmlns="http://www.w3.org/2000/svg" version="1.1" xmlns:xlink="http://www.w3.org/1999/xlink" xmlns:svgjs="http://svgjs.com/svgjs" width="1440" height="560" preserveAspectRatio="none" viewBox="0 0 1440 560"><g mask="url(&quot;#SvgjsMask1105&quot;)" fill="none"><rect width="1440" height="560" x="0" y="0" fill="url(#SvgjsLinearGradient1106)"></rect><path d="M -440.8340141961835,45 C -368.83,115.4 -224.83,402.8 -80.83401419618349,397 C 63.17,391.2 135.17,31.6 279.1659858038165,16 C 423.17,0.4 495.17,268.8 639.1659858038165,319 C 783.17,369.2 855.17,222.8 999.1659858038165,267 C 1143.17,311.2 1271,552.8 1359.1659858038165,540 C 1447.33,527.2 1423.83,270.4 1440,203" stroke="rgba(0, 166, 160, 0.68)" stroke-width="2"></path><path d="M -171.7536318112466,413 C -99.75,380 44.25,265 188.2463681887534,248 C 332.25,231 404.25,321.8 548.2463681887534,328 C 692.25,334.2 764.25,247.2 908.2463681887534,279 C 1052.25,310.8 1124.25,539.2 1268.2463681887534,487 C 1412.25,434.8 1593.9,29.2 1628.2463681887534,18 C 1662.6,6.8 1477.65,348.4 1440,431" stroke="rgba(69, 176, 158, 1)" stroke-width="2"></path><path d="M -125.77923553727243,166 C -53.78,200.4 90.22,315.4 234.22076446272757,338 C 378.22,360.6 450.22,263.4 594.2207644627276,279 C 738.22,294.6 810.22,454.6 954.2207644627276,416 C 1098.22,377.4 1170.22,60.6 1314.2207644627276,86 C 1458.22,111.4 1649.06,551 1674.2207644627276,543 C 1699.38,535 1486.84,145.4 1440,46" stroke="rgba(0, 166, 160, 0.68)" stroke-width="2"></path><path d="M -203.69238227417932,174 C -131.69,225.8 12.31,449.6 156.30761772582068,433 C 300.31,416.4 372.31,68.8 516.3076177258207,91 C 660.31,113.2 732.31,527 876.3076177258207,544 C 1020.31,561 1092.31,210.4 1236.3076177258206,176 C 1380.31,141.6 1555.57,376.8 1596.3076177258206,372 C 1637.05,367.2 1471.26,196 1440,152" stroke="rgba(69, 176, 158, 1)" stroke-width="2"></path></g><defs><mask id="SvgjsMask1105"><rect width="1440" height="560" fill="#ffffff"></rect></mask><linearGradient x1="15.28%" y1="-39.29%" x2="84.72%" y2="139.29%" gradientUnits="userSpaceOnUse" id="SvgjsLinearGradient1106"><stop stop-color="rgba(0, 166, 160, 1)" offset="0"></stop><stop stop-color="rgba(69, 176, 158, 1)" offset="1"></stop></linearGradient></defs></svg>