<?xml version="1.0"?>
<svg xmlns="http://www.w3.org/2000/svg" viewBox="0 0 512 512" width="512px" height="512px"><g><g id="SOLID"><path d="M135.94385,192H400V40a8.00917,8.00917,0,0,0-8-8H88a8.00917,8.00917,0,0,0-8,8V280.44873l17.56934-59.73535A40.22243,40.22243,0,0,1,135.94385,192ZM376,160H248V144H376Zm0-40H288V104h88ZM184,64H376V80H184Zm-80,0h64V80H104Zm0,40H272v16H104Zm0,40H232v16H104Z" data-original="#000000" class="active-path" data-old_color="#000000" fill="#FFFFFF"/><path d="M64,168H56a24.0275,24.0275,0,0,0-24,24V443.648L64,334.84851Z" data-original="#000000" class="active-path" data-old_color="#000000" fill="#FFFFFF"/><path d="M416,168v24h24A24.02687,24.02687,0,0,0,416,168Z" data-original="#000000" class="active-path" data-old_color="#000000" fill="#FFFFFF"/><path d="M288,256a8.00917,8.00917,0,0,0-8-8H264a8.00917,8.00917,0,0,0-8,8V368H241.39355L272,403.70752,302.60645,368H288Z" data-original="#000000" class="active-path" data-old_color="#000000" fill="#FFFFFF"/><path d="M472.05322,217.72314A23.77949,23.77949,0,0,0,452.76172,208H135.94385a24.13366,24.13366,0,0,0-23.0249,17.228L39.83252,473.72217A23.909,23.909,0,0,0,56,480H384.31738a23.87117,23.87117,0,0,0,22.95215-16.98682l68.44434-224A23.77825,23.77825,0,0,0,472.05322,217.72314ZM312,456H232V440h80Zm-40-27.70752L206.60645,352H240V256a24.0275,24.0275,0,0,1,24-24h16a24.0275,24.0275,0,0,1,24,24v96h33.39355Z" data-original="#000000" class="active-path" data-old_color="#000000" fill="#FFFFFF"/></g></g> </svg>
