<?xml version="1.0"?>
<svg xmlns="http://www.w3.org/2000/svg" id="Layer_1" enable-background="new 0 0 124 124" height="512px" viewBox="0 0 124 124" width="512px" class=""><g><g id="XMLID_84_"><g id="XMLID_353_"><path d="m89.181 48.057c2.393 1.021 4.623 2.34 6.668 3.943v-38.188s-5.621-2.052-6.668-2.382z" data-original="#000000" class="active-path" data-old_color="#000000" fill="#FFFFFF"/><path d="m40.52 70.94h7.338c.848-4.836 2.782-9.308 5.685-13.172-1.523.399-3.022.865-4.489 1.392-.553.324-1.305.378-1.92.122-12.124-4.458-25.47-4.446-37.585.036-1.658.334-2.618-.334-2.881-2.005v-45.883c-1.047.33-6.668 2.382-6.668 2.382v55.309c8.25-3.449 18.247-6.253 26.804-6.253 2.551 0 6.589.557 12.003 1.656.997.202 1.713 1.079 1.713 2.096z" data-original="#000000" class="active-path" data-old_color="#000000" fill="#FFFFFF"/><g><path d="m10.945 2.87v51.456c5.675-1.769 11.56-2.655 17.443-2.655 5.865 0 11.726.883 17.385 2.641v-51.451c-11.29-3.814-23.543-3.818-34.828.009zm9.245 9.113c5.091-.667 10.254-.668 15.345-.004 1.172.153 1.997 1.226 1.844 2.397-.153 1.172-1.226 1.997-2.397 1.844-4.724-.616-9.513-.615-14.236.003-.094.013-.188.018-.28.018-1.058 0-1.977-.784-2.118-1.861-.154-1.17.671-2.243 1.842-2.397zm0 13.217c5.097-.668 10.262-.668 15.354-.002 1.172.153 1.997 1.226 1.843 2.397s-1.229 1.995-2.398 1.843c-4.724-.618-9.516-.617-14.244.002-.095.013-.188.018-.28.018-1.058 0-1.977-.784-2.118-1.861-.153-1.17.672-2.244 1.843-2.397zm17.25 15.622c-.142 1.076-1.061 1.859-2.118 1.859-.093 0-.187-.006-.282-.018-4.741-.625-9.551-.626-14.295-.005-1.172.158-2.245-.671-2.398-1.842-.154-1.171.671-2.245 1.843-2.398 5.113-.671 10.297-.669 15.409.005 1.171.154 1.995 1.228 1.841 2.399z" data-original="#000000" class="active-path" data-old_color="#000000" fill="#FFFFFF"/><path d="m50.051 2.87v51.43c.4-.123.808-.227 1.212-.341v.013c2.451-.7 4.96-1.255 7.51-1.633 7.347-5.962 17.081-8.055 26.131-5.735v-43.734c-11.292-3.829-23.556-3.823-34.853 0zm9.716 9.113c5.091-.668 10.253-.669 15.345-.003 1.171.153 1.997 1.226 1.843 2.397-.153 1.171-1.22 1.997-2.398 1.843-4.722-.616-9.511-.615-14.235.003-.094.013-.188.018-.28.018-1.058 0-1.977-.784-2.118-1.861-.153-1.17.672-2.243 1.843-2.397zm0 13.217c5.097-.668 10.263-.668 15.354-.002 1.172.153 1.997 1.226 1.843 2.397s-1.229 1.995-2.398 1.843c-4.724-.618-9.516-.617-14.244.002-.095.013-.188.018-.28.018-1.058 0-1.977-.784-2.118-1.861-.153-1.17.672-2.244 1.843-2.397zm17.251 15.622c-.142 1.076-1.061 1.859-2.118 1.859-.093 0-.187-.006-.282-.018-4.742-.625-9.552-.626-14.295-.005-1.172.158-2.245-.671-2.398-1.842s.671-2.245 1.843-2.398c5.112-.671 10.297-.669 15.409.005 1.171.154 1.995 1.228 1.841 2.399z" data-original="#000000" class="active-path" data-old_color="#000000" fill="#FFFFFF"/></g></g><path d="m95.027 101.491 9.664 12.192c3.442 4.343 7.852 7.9 12.781 10.317 3.403-.455 6.096-3.233 6.527-6.738-2.368-5.059-5.856-9.583-10.114-13.111l-11.844-9.812c-1.943 2.77-4.281 5.154-7.014 7.152z" data-original="#000000" class="active-path" data-old_color="#000000" fill="#FFFFFF"/><g><path d="m77.518 50.017c-14.446 0-26.198 11.752-26.198 26.197s11.753 26.197 26.198 26.197 26.198-11.752 26.198-26.197-11.752-26.197-26.198-26.197zm0 47.271c-11.498 0-20.852-9.353-20.852-20.851s9.354-20.851 20.852-20.851 20.852 9.354 20.852 20.852-9.354 20.85-20.852 20.85z" data-original="#000000" class="active-path" data-old_color="#000000" fill="#FFFFFF"/><path d="m77.518 59.864c-9.139 0-16.575 7.435-16.575 16.574s7.435 16.574 16.575 16.574 16.575-7.435 16.575-16.574-7.436-16.574-16.575-16.574zm-6.191 22.047c.826.844.806 2.193-.033 3.024-.986.975-2.605.395-3.024-.033-4.566-4.667-4.566-12.26 0-16.927.826-.844 2.179-.86 3.024-.033.844.826.859 2.18.033 3.024-2.952 3.017-2.952 7.927 0 10.945z" data-original="#000000" class="active-path" data-old_color="#000000" fill="#FFFFFF"/></g></g></g> </svg>
